<svg width="25" height="25" viewBox="0 0 25 25" fill="none" xmlns="http://www.w3.org/2000/svg">
<g clip-path="url(#clip0)">
<path d="M24.5143 19.879L21.7428 18.0312L19.2791 16.389C18.8036 16.0726 18.1646 16.1763 17.8135 16.6269L16.289 18.5868C15.9615 19.0121 15.3724 19.1343 14.9028 18.8743C13.8683 18.2989 12.645 17.7571 9.94596 15.0545C7.24687 12.352 6.70161 11.1321 6.12618 10.0977C5.86617 9.62806 5.98838 9.03896 6.41367 8.71152L8.37356 7.18698C8.82409 6.836 8.92785 6.197 8.6115 5.72147L7.01972 3.33356L5.12145 0.486128C4.79836 0.00146584 4.15159 -0.14404 3.65208 0.155517L1.46285 1.46888C0.871207 1.81746 0.436299 2.38034 0.248216 3.04083C-0.350459 5.22357 -0.471161 10.0386 7.24555 17.7553C14.9623 25.472 19.7769 25.3509 21.9596 24.7522C22.6201 24.5642 23.183 24.1293 23.5315 23.5376L24.8449 21.3484C25.1445 20.8488 24.999 20.2021 24.5143 19.879Z" fill="#F46EA8"/>
<path d="M14.2238 3.87914C18.2688 3.88363 21.5469 7.16162 21.5513 11.2066C21.5513 11.4447 21.7443 11.6377 21.9824 11.6377C22.2204 11.6377 22.4134 11.4447 22.4134 11.2066C22.4085 6.68575 18.7448 3.02207 14.2239 3.01709C13.9859 3.01709 13.7928 3.21006 13.7928 3.44814C13.7928 3.68613 13.9858 3.87914 14.2238 3.87914Z" fill="#F46EA8"/>
<path d="M14.2239 6.46537C16.8412 6.46845 18.9621 8.58942 18.9652 11.2067C18.9652 11.4447 19.1582 11.6377 19.3963 11.6377C19.6343 11.6377 19.8273 11.4448 19.8273 11.2067C19.8237 8.1135 17.3171 5.60684 14.2239 5.60327C13.9859 5.60327 13.7928 5.79624 13.7928 6.03432C13.7928 6.2724 13.9858 6.46537 14.2239 6.46537Z" fill="#F46EA8"/>
<path d="M14.2238 9.05163C15.4135 9.05304 16.3776 10.0171 16.379 11.2068C16.379 11.4448 16.572 11.6378 16.8101 11.6378C17.0481 11.6378 17.2411 11.4449 17.2411 11.2068C17.2392 9.54122 15.8895 8.19148 14.2239 8.18958C13.9859 8.18958 13.7928 8.38254 13.7928 8.62062C13.7928 8.85866 13.9858 9.05163 14.2238 9.05163Z" fill="#F46EA8"/>
</g>
<defs>
<clipPath id="clip0">
<rect width="25" height="25" fill="white"/>
</clipPath>
</defs>
</svg>
