<svg width="30" height="30" viewBox="0 0 30 30" fill="none" xmlns="http://www.w3.org/2000/svg">
<path fill-rule="evenodd" clip-rule="evenodd" d="M30 0H-1.52588e-05V30H30V0ZM4.50885 25.5026L5.97834 20.2835C5.03337 18.6781 4.53584 16.8516 4.53584 14.9752C4.53584 9.19777 9.23611 4.4975 15.0135 4.4975C20.791 4.4975 25.4912 9.19777 25.4912 14.9752C25.4912 20.7526 20.791 25.4529 15.0135 25.4529C13.2133 25.4529 11.4506 24.9921 9.89117 24.1171L4.50885 25.5026ZM10.1663 22.2109L10.4871 22.4068C11.8467 23.2368 13.4119 23.6755 15.0135 23.6755C19.8109 23.6755 23.7138 19.7726 23.7138 14.9752C23.7138 10.1778 19.8109 6.27487 15.0135 6.27487C10.2162 6.27487 6.31321 10.1778 6.31321 14.9752C6.31321 16.6468 6.78829 18.27 7.68698 19.6695L7.90296 20.0058L7.05674 23.0114L10.1663 22.2109ZM11.3903 10.0616L12.0702 10.0986C12.204 10.106 12.3222 10.1886 12.3749 10.312L13.3654 12.6292C13.4183 12.753 13.396 12.8962 13.308 12.998L12.4459 13.9953C12.376 14.0762 12.3638 14.1913 12.413 14.2862C13.5484 16.4733 15.6177 17.3399 16.2354 17.557C16.3407 17.594 16.4574 17.559 16.5255 17.4706L17.4276 16.3013C17.5279 16.1713 17.7048 16.1278 17.8539 16.1965L20.1517 17.2556C20.3014 17.3246 20.3832 17.4881 20.3487 17.6493L20.2401 18.1563C20.1177 18.7284 19.778 19.2344 19.2851 19.5496C18.6628 19.9477 17.8563 20.1431 16.831 19.8532C13.6493 18.9536 11.8501 16.847 10.8846 15.5305C9.91906 14.2139 9.54601 12.8973 9.7874 11.8222C9.94928 11.1011 10.4763 10.5477 10.8059 10.2615C10.9673 10.1213 11.1768 10.0499 11.3903 10.0616Z" fill="#F2ECEB"/>
</svg>
