<svg width="30" height="30" viewBox="0 0 30 30" fill="none" xmlns="http://www.w3.org/2000/svg">
<path fill-rule="evenodd" clip-rule="evenodd" d="M0 0H30V30H0V0ZM10.602 14.0821C9.40186 12.5793 8.49067 10.9053 7.77169 9.12974C7.51871 8.50641 7.10919 8.25303 6.50864 8.22051C6.44604 8.21716 2.68237 8.13869 2.48002 8.21742C2.15542 8.34375 2.06029 8.71074 2.16226 9.09491C2.19294 9.20965 3.33447 11.6387 3.39207 11.7541C4.51911 14.0113 5.75359 16.2041 7.31649 18.199C8.30036 19.4549 9.43616 20.5319 10.8585 21.2935C12.5367 22.1926 14.3381 22.3999 16.1971 22.299C16.841 22.2635 17.2068 21.8971 17.2476 21.3223C17.2554 21.2124 17.423 19.9252 17.617 19.4351C17.8441 18.8644 18.321 18.7821 18.8069 19.1528C19.0129 19.3096 19.204 19.4891 19.3829 19.6765C19.5957 19.8992 19.8043 20.1259 20.013 20.3526C20.3869 20.7589 20.7608 21.1651 21.1579 21.5476C21.7141 22.0828 22.4049 22.3561 23.1929 22.3596C23.2148 22.3597 23.295 22.3616 23.418 22.3644C24.1443 22.3811 26.3623 22.4321 26.8755 22.3596C27.8292 22.2245 28.1446 21.4653 27.6341 20.6592C27.2304 20.0219 26.7589 19.4165 26.2496 18.8585C25.8364 18.4064 25.3975 17.978 24.9586 17.5496C24.6529 17.2513 24.3471 16.9529 24.05 16.6463C23.5953 16.1772 23.5736 15.8613 23.8854 15.2979C23.9726 15.1412 24.0662 14.9868 24.1726 14.8421C24.4552 14.4567 24.7402 14.073 25.0252 13.6893C25.5806 12.9415 26.1359 12.1938 26.6742 11.434C27.1818 10.7174 27.6557 9.97201 27.8533 9.09504C27.938 8.72081 27.7944 8.4259 27.4328 8.31057C27.21 8.23967 26.9631 8.21742 26.7271 8.21624C25.396 8.21202 24.065 8.21321 22.7339 8.21624C22.0258 8.21801 21.8258 8.36099 21.5645 9.01927C21.0593 10.295 20.4725 11.5323 19.6869 12.6598C19.2545 13.2796 18.7937 13.8899 18.2712 14.4323C17.8597 14.8593 17.4573 14.7109 17.3269 14.1199C17.2338 13.6959 17.202 13.2495 17.2074 12.8141C17.2149 12.1585 17.2366 11.503 17.2583 10.8474C17.2733 10.3934 17.2884 9.93939 17.2987 9.48527C17.3047 9.22696 17.2825 8.96451 17.2392 8.70922C17.1557 8.21433 16.8842 7.85872 16.3773 7.7482C15.9886 7.66348 15.5916 7.63168 15.197 7.62806C14.9469 7.62558 14.6967 7.6209 14.4464 7.61621C13.727 7.60275 13.0071 7.58928 12.2892 7.62806C11.6922 7.65992 11.1416 7.74043 10.7463 8.2456C10.5565 8.48824 10.5839 8.73147 10.8794 8.78493C11.8363 8.95733 12.0676 9.52852 12.103 10.179C12.1576 11.1947 12.1804 11.8611 12.1606 12.8781C12.1534 13.2672 12.0315 14.0183 11.8987 14.389C11.7732 14.7421 11.4819 14.8166 11.1732 14.6046C10.9618 14.4599 10.7612 14.2821 10.602 14.0821Z" fill="#F2ECEB"/>
</svg>
