<svg width="12" height="12" viewBox="0 0 12 12" fill="none" xmlns="http://www.w3.org/2000/svg">
<g clip-path="url(#clip0)">
<path d="M1.034 6.59371C0.917995 6.72882 0.861551 6.90082 0.875329 7.0786C0.889106 7.25637 0.970884 7.41815 1.10644 7.53371L4.39666 10.3541C4.51888 10.4586 4.67044 10.5146 4.82955 10.5146C4.84911 10.5146 4.86911 10.5137 4.88911 10.5119C5.06911 10.4959 5.23133 10.4101 5.346 10.271L10.9736 3.42171C11.0864 3.28393 11.1393 3.1106 11.122 2.93327C11.1042 2.75593 11.0193 2.59593 10.8816 2.4826L9.85133 1.63638C9.56733 1.40349 9.14688 1.44438 8.91311 1.72838L4.582 6.99993L2.84155 5.50882C2.56244 5.2706 2.14111 5.30215 1.90155 5.58126L1.034 6.59371Z" fill="#F2ECEB"/>
</g>
<defs>
<clipPath id="clip0">
<rect x="0.666016" y="0.666626" width="10.6667" height="10.6667" rx="5" fill="white"/>
</clipPath>
</defs>
</svg>
